<?xml version="1.0" encoding="utf-8"?>
<!-- Generator: Adobe Illustrator 27.0.0, SVG Export Plug-In . SVG Version: 6.00 Build 0)  -->
<svg version="1.1" id="Layer_1" xmlns="http://www.w3.org/2000/svg" xmlns:xlink="http://www.w3.org/1999/xlink" x="0px" y="0px"
	 viewBox="0 0 480.7 116.7" style="enable-background:new 0 0 480.7 116.7;" xml:space="preserve">
<style type="text/css">
	.st0{fill:#205375;}
</style>
<g>
	<path class="st0" d="M26,11.8v81.3h45.9c3.7,0,6.5,0.9,8.4,2.7c1.9,1.8,2.9,4,2.9,6.7c0,2.7-1,5-2.9,6.7c-1.9,1.7-4.8,2.5-8.5,2.5
		H17.3c-4.9,0-8.5-1.1-10.6-3.3c-2.2-2.2-3.2-5.7-3.2-10.6v-86c0-4.6,1-8,3.1-10.3c2-2.3,4.8-3.4,8.1-3.4c3.4,0,6.2,1.1,8.3,3.4
		C25,3.7,26,7.2,26,11.8z"/>
	<path class="st0" d="M99,99.8v-88c0-4.6,1-8,3.1-10.3c2.1-2.3,4.8-3.4,8.1-3.4c3.4,0,6.2,1.1,8.3,3.4c2.1,2.3,3.2,5.7,3.2,10.3v88
		c0,4.6-1.1,8.1-3.2,10.4c-2.1,2.3-4.9,3.4-8.3,3.4c-3.2,0-5.9-1.2-8-3.5C100,107.8,99,104.4,99,99.8z"/>
	<path class="st0" d="M194.6,111.7h-34.1c-4.9,0-8.4-1.1-10.6-3.3s-3.2-5.7-3.2-10.5V13.9c0-4.9,1.1-8.5,3.2-10.6S155.6,0,160.5,0
		h36.2c5.3,0,10,0.3,13.9,1c3.9,0.7,7.4,1.9,10.5,3.8c2.6,1.6,5,3.6,7,6s3.6,5.1,4.6,8s1.6,6,1.6,9.2c0,11.2-5.6,19.4-16.8,24.5
		c14.7,4.7,22,13.8,22,27.3c0,6.2-1.6,11.9-4.8,16.9c-3.2,5-7.5,8.7-13,11.1c-3.4,1.4-7.3,2.4-11.7,3
		C205.6,111.4,200.5,111.7,194.6,111.7z M169.4,17v28.9h20.7c5.6,0,10-0.5,13.1-1.6s5.4-3.1,7-6.1c1.3-2.1,1.9-4.5,1.9-7.2
		c0-5.6-2-9.4-6-11.2c-4-1.9-10.1-2.8-18.4-2.8H169.4z M192.9,62.1h-23.5v32.6h24.3c15.3,0,22.9-5.5,22.9-16.5c0-5.6-2-9.7-5.9-12.3
		C206.7,63.4,200.8,62.1,192.9,62.1z"/>
	<path class="st0" d="M289.5,63.9h-7.9v35.9c0,4.7-1,8.2-3.1,10.4c-2.1,2.2-4.8,3.4-8.1,3.4c-3.6,0-6.4-1.2-8.4-3.5s-3-5.8-3-10.3
		V13.9c0-4.9,1.1-8.4,3.3-10.6c2.2-2.2,5.7-3.3,10.6-3.3h36.8c5.1,0,9.4,0.2,13,0.6s6.9,1.3,9.8,2.6c3.5,1.5,6.6,3.6,9.3,6.3
		c2.7,2.7,4.7,5.9,6.1,9.6s2.1,7.5,2.1,11.5c0,8.3-2.4,15-7,20c-4.7,5-11.8,8.5-21.4,10.6c4,2.1,7.9,5.3,11.5,9.5
		c3.7,4.2,6.9,8.6,9.8,13.3c2.9,4.7,5.1,8.9,6.7,12.7s2.4,6.4,2.4,7.8c0,1.5-0.5,2.9-1.4,4.4s-2.2,2.6-3.9,3.4s-3.5,1.3-5.6,1.3
		c-2.5,0-4.7-0.6-6.4-1.8c-1.7-1.2-3.2-2.7-4.5-4.5s-2.9-4.5-5.1-8.1L316,84.1c-3.2-5.5-6.2-9.8-8.7-12.6s-5.2-4.9-7.8-5.9
		C296.8,64.4,293.5,63.9,289.5,63.9z M302.4,17h-20.9v30.7h20.3c5.4,0,10-0.5,13.7-1.4s6.5-2.5,8.5-4.8c2-2.3,2.9-5.4,2.9-9.3
		c0-3.1-0.8-5.8-2.4-8.2c-1.6-2.4-3.8-4.1-6.5-5.3C315.4,17.5,310.2,17,302.4,17z"/>
</g>
<path class="st0" d="M474.3,27.1c-4.3-8.7-10.5-15.3-18.8-20c-8.3-4.7-18.2-7-29.8-7c-8.5,0-16.1,1.3-22.8,4
	c-6.7,2.7-12.4,6.5-17.1,11.5c-4.7,5-8.2,11.1-10.7,18.3c-2.5,7.2-3.7,15-3.7,23.6c0,8.4,1.2,16.2,3.5,23.4
	c2.4,7.2,5.8,13.4,10.5,18.5s10.4,9.1,17.3,11.9c6.9,2.8,14.7,4.2,23.5,4.2c8.8,0,16.6-1.4,23.4-4.1c6.8-2.7,12.5-6.7,17.2-11.9
	s8.2-11.3,10.5-18.4c2.3-7.1,3.5-14.9,3.5-23.5C480.7,45.9,478.5,35.8,474.3,27.1z M462.3,51l-16.9,16.4c-0.5,0.5-0.7,1.2-0.6,1.9
	l4,23.2c0.3,1.7-1.5,3-3.1,2.2l-20.8-11c-0.6-0.3-1.4-0.3-2,0l-20.8,11c-1.6,0.8-3.4-0.5-3.1-2.2l4-23.2c0.1-0.7-0.1-1.4-0.6-1.9
	L385.6,51c-1.3-1.2-0.6-3.4,1.2-3.6l23.3-3.4c0.7-0.1,1.3-0.5,1.6-1.2l10.4-21.1c0.8-1.6,3-1.6,3.8,0l10.4,21.1
	c0.3,0.6,0.9,1.1,1.6,1.2l23.3,3.4C462.9,47.6,463.6,49.8,462.3,51z"/>
</svg>
